<svg width="16" height="16" viewBox="0 0 16 16" fill="none" xmlns="http://www.w3.org/2000/svg">
<path d="M13.95 8.78333C13.9833 8.53333 14 8.275 14 8C14 7.73333 13.9833 7.46667 13.9417 7.21667L15.6333 5.9C15.7833 5.78333 15.825 5.55833 15.7333 5.39167L14.1333 2.625C14.0333 2.44167 13.825 2.38333 13.6417 2.44167L11.65 3.24167C11.2333 2.925 10.7917 2.65833 10.3 2.45833L10 0.341667C9.96667 0.141667 9.8 0 9.6 0H6.4C6.2 0 6.04167 0.141667 6.00833 0.341667L5.70833 2.45833C5.21667 2.65833 4.76667 2.93333 4.35833 3.24167L2.36667 2.44167C2.18333 2.375 1.975 2.44167 1.875 2.625L0.283334 5.39167C0.183334 5.56667 0.216668 5.78333 0.383334 5.9L2.075 7.21667C2.03333 7.46667 2 7.74167 2 8C2 8.25833 2.01667 8.53333 2.05833 8.78333L0.366668 10.1C0.216668 10.2167 0.175001 10.4417 0.266668 10.6083L1.86667 13.375C1.96667 13.5583 2.175 13.6167 2.35833 13.5583L4.35 12.7583C4.76667 13.075 5.20833 13.3417 5.7 13.5417L6 15.6583C6.04167 15.8583 6.2 16 6.4 16H9.6C9.8 16 9.96667 15.8583 9.99167 15.6583L10.2917 13.5417C10.7833 13.3417 11.2333 13.075 11.6417 12.7583L13.6333 13.5583C13.8167 13.625 14.025 13.5583 14.125 13.375L15.725 10.6083C15.825 10.425 15.7833 10.2167 15.625 10.1L13.95 8.78333ZM8 11C6.35 11 5 9.65 5 8C5 6.35 6.35 5 8 5C9.65 5 11 6.35 11 8C11 9.65 9.65 11 8 11Z" fill="#9CA3AF"/>
</svg>
